<svg width="24" height="24" viewBox="0 0 24 24" fill="none" xmlns="http://www.w3.org/2000/svg">
<path d="M23 12.067C23 17.1186 19.6121 21.3877 15 22.7398V16.333H16.667H17.5198L17.6545 15.4909L18.1875 12.1579L18.3726 11H17.2H15V9.667C15 9.28554 15.0748 9.17287 15.0973 9.14756L15.0975 9.1474C15.1026 9.14136 15.2238 9 15.8 9H17.333H18.333V8V4.933V4.07486L17.4848 3.94459C16.6239 3.81237 15.6193 3.667 14.667 3.667C13.0987 3.667 11.6644 4.14751 10.6159 5.15339C9.56075 6.16574 9 7.611 9 9.333V11H7H6V12V15.333V16.333H7H9V22.7398C4.38792 21.3875 1 17.1177 1 12.067C1 5.97704 5.95752 1 12 1C18.0425 1 23 5.97704 23 12.067Z" stroke="white" stroke-width="2"/>
</svg>
