<svg width="22" height="22" viewBox="0 0 22 22" fill="none" xmlns="http://www.w3.org/2000/svg">
<path d="M20.16 1L20.1616 1C20.2717 0.999821 20.3807 1.02135 20.4825 1.06337C20.5842 1.10538 20.6767 1.16704 20.7545 1.24483C20.8324 1.32262 20.8942 1.41501 20.9363 1.5167C20.9784 1.61838 21.0001 1.72738 21 1.83746V1.838V20.16V20.1611C21.0001 20.2713 20.9785 20.3804 20.9364 20.4822C20.8943 20.584 20.8326 20.6765 20.7547 20.7544C20.6768 20.8323 20.5844 20.8941 20.4826 20.9363C20.3808 20.9784 20.2717 21.0001 20.1615 21H20.161H1.838C1.72792 21 1.61891 20.9783 1.5172 20.9362C1.4155 20.894 1.3231 20.8323 1.24528 20.7544C1.16746 20.6765 1.10575 20.5841 1.06366 20.4824C1.02157 20.3807 0.99994 20.2716 1 20.1615V20.161V1.838C1 1.61575 1.08829 1.4026 1.24544 1.24545C1.4026 1.08829 1.61575 1 1.838 1L20.16 1ZM8.708 7.388H7.708V8.388V18.928V19.928H8.708H11.916H12.916V18.928V13.822C12.916 13.061 13.061 12.6042 13.2344 12.3612C13.3655 12.1775 13.575 12.022 14.061 12.022C14.1743 12.022 14.2142 12.0461 14.2249 12.0529C14.2384 12.0614 14.2837 12.0939 14.3415 12.2067C14.4747 12.4666 14.583 12.9711 14.583 13.822V18.928V19.928H15.583H18.79H19.79V18.928V13.106C19.79 11.5119 19.6126 10.0158 18.8333 8.91988C17.9903 7.73427 16.631 7.25 14.87 7.25C14.0495 7.25 13.3127 7.41252 12.687 7.6932V7.388H11.687H8.708ZM2.208 18.791V19.791H3.208H6.416H7.416V18.791V8.25V7.25H6.72496C6.82215 7.17232 6.91471 7.08863 7.00208 6.99931C7.28733 6.70772 7.51145 6.36208 7.66131 5.98269C7.81117 5.6033 7.88374 5.1978 7.87476 4.78999C7.85713 3.9895 7.52676 3.22774 6.95439 2.66784C6.38203 2.10794 5.61318 1.79442 4.8125 1.79442C4.01182 1.79442 3.24297 2.10794 2.67061 2.66784C2.09824 3.22774 1.76787 3.9895 1.75024 4.78999C1.74126 5.1978 1.81383 5.6033 1.96369 5.98269C2.11355 6.36208 2.33767 6.70772 2.62292 6.99931C2.71029 7.08863 2.80285 7.17232 2.90004 7.25H2.208V8.25V18.79V18.791Z" stroke="white" stroke-width="2"/>
</svg>
