<svg width="32" height="26" viewBox="0 0 32 26" fill="none" xmlns="http://www.w3.org/2000/svg">
<path d="M21.9655 8.52199C22.1631 8.52199 22.3606 8.52863 22.5549 8.53859C21.7378 4.26639 17.254 1 11.8427 1C5.85545 1 1 5.00332 1 9.94274C1 12.6349 2.45998 15.0614 4.74707 16.7012C4.8414 16.7673 4.91833 16.8548 4.97137 16.9565C5.0244 17.0582 5.05199 17.171 5.05179 17.2855C5.05179 17.3651 5.03505 17.4382 5.01496 17.5145C4.83078 18.1884 4.53946 19.2672 4.52606 19.317C4.50262 19.4033 4.46914 19.4896 4.46914 19.5792C4.46914 19.7751 4.62987 19.9378 4.83078 19.9378C4.9078 19.9378 4.97143 19.9079 5.0384 19.8714L7.41255 18.5137C7.59002 18.4108 7.78089 18.3477 7.9885 18.3477C8.09566 18.3477 8.20281 18.3643 8.30662 18.3942C9.415 18.7095 10.6104 18.8855 11.8461 18.8855C12.047 18.8855 12.2446 18.8822 12.4421 18.8722C12.2044 18.1751 12.0771 17.4415 12.0771 16.6813C12.0771 12.1734 16.504 8.52199 21.9655 8.52199V8.52199ZM15.4592 5.65062C16.2562 5.65062 16.9058 6.29128 16.9058 7.08133C16.9058 7.87137 16.2595 8.51203 15.4592 8.51203C14.6622 8.51203 14.0126 7.87137 14.0126 7.08133C14.0126 6.29128 14.6622 5.65062 15.4592 5.65062ZM8.2296 8.51203C7.43264 8.51203 6.78301 7.87137 6.78301 7.08133C6.78301 6.29128 7.42929 5.65062 8.2296 5.65062C9.02991 5.65062 9.67619 6.29128 9.67619 7.08133C9.67619 7.87137 9.02656 8.51203 8.2296 8.51203ZM27.8791 22.3079C29.7845 20.9402 31 18.922 31 16.6747C31 12.5585 26.9549 9.2224 21.9622 9.2224C16.9728 9.2224 12.9243 12.5585 12.9243 16.6747C12.9243 20.7909 16.9694 24.127 21.9622 24.127C22.9935 24.127 23.9914 23.9809 24.9123 23.7187C24.9993 23.6921 25.0864 23.6788 25.1768 23.6788C25.3509 23.6788 25.5083 23.7319 25.6557 23.8149L27.6347 24.9436C27.6916 24.9768 27.7452 25 27.8088 25C27.8485 25.0003 27.8879 24.9928 27.9246 24.978C27.9614 24.9632 27.9949 24.9414 28.0231 24.9137C28.051 24.8857 28.0731 24.8525 28.088 24.8161C28.103 24.7796 28.1105 24.7406 28.1102 24.7012C28.1102 24.6282 28.08 24.5552 28.0633 24.4822C28.0532 24.4423 27.8088 23.5427 27.6548 22.9784C27.638 22.9153 27.6246 22.8523 27.6246 22.7892C27.628 22.5934 27.7284 22.4174 27.8791 22.3079V22.3079ZM18.9551 15.4863C18.2888 15.4863 17.7496 14.9519 17.7496 14.2946C17.7496 13.6373 18.2888 13.1029 18.9551 13.1029C19.6215 13.1029 20.1606 13.6373 20.1606 14.2946C20.1606 14.9519 19.6181 15.4863 18.9551 15.4863ZM24.9792 15.4863C24.3129 15.4863 23.7737 14.9519 23.7737 14.2946C23.7737 13.6373 24.3129 13.1029 24.9792 13.1029C25.6456 13.1029 26.1847 13.6373 26.1847 14.2946C26.1831 14.6107 26.0555 14.9135 25.8297 15.1367C25.6039 15.3599 25.2982 15.4856 24.9792 15.4863V15.4863Z" stroke="white" stroke-width="2"/>
</svg>
