<svg width="28" height="20" viewBox="0 0 28 20" fill="none" xmlns="http://www.w3.org/2000/svg">
<path d="M23.6461 1.532C24.3113 1.7042 24.9218 2.04281 25.4201 2.51601L23.6461 1.532ZM23.6461 1.532C23.0741 1.38172 22.1646 1.28514 21.2043 1.21622C20.2149 1.14521 19.0827 1.09833 18.0184 1.06722C16.9526 1.03606 15.947 1.02051 15.2083 1.01274C14.8388 1.00885 14.5356 1.00691 14.3245 1.00593C14.219 1.00545 14.1364 1.0052 14.0801 1.00508L14.0157 1.00497L13.999 1.00496L13.9988 1.00496C10.8235 0.969074 7.64899 1.12801 4.49315 1.48086L4.4139 1.48972L4.33706 1.51102C3.67658 1.69417 3.07158 2.03763 2.57588 2.51093L2.57587 2.51092L2.57328 2.51342C2.08106 2.98678 1.71873 3.57631 1.52843 4.22981L1.51448 4.27773L1.50536 4.32681C1.15792 6.19763 0.988909 8.09718 1.0006 9.99991C0.988607 11.901 1.15722 13.8001 1.50539 15.6733L1.51407 15.72L1.52714 15.7657C1.71466 16.421 2.07811 17.0115 2.57431 17.4834C3.0714 17.9562 3.68368 18.2915 4.34755 18.4678L4.35312 18.4693C4.92899 18.6187 5.83975 18.7152 6.80254 18.7842C7.79189 18.8551 8.92171 18.9018 9.98292 18.9329C11.0457 18.964 12.0475 18.9795 12.783 18.9873C13.151 18.9911 13.4529 18.9931 13.663 18.9941C13.7681 18.9945 13.8502 18.9948 13.9063 18.9949L13.9704 18.995L13.987 18.995C17.1663 19.031 20.3449 18.872 23.5047 18.5191L23.5751 18.5113L23.6438 18.4936C24.3096 18.3216 24.9207 17.983 25.4194 17.5097L23.6461 1.532ZM25.4198 17.5093C25.9162 17.0387 26.2756 16.4423 26.4596 15.7836L26.4709 15.7431L26.4788 15.7018C26.8353 13.8314 27.009 11.9308 26.9974 10.0267C27.0236 8.11023 26.8497 6.19621 26.4785 4.31576L26.0379 4.35883L26.4603 4.24036C26.2757 3.58221 25.9163 2.98637 25.4202 2.51609L25.4198 17.5093ZM15.7756 10.0009L12.6013 11.7357V8.2655L15.7756 10.0009Z" stroke="white" stroke-width="2"/>
</svg>
